<?xml version="1.0" encoding="UTF-8"?>
<svg id="Layer_1" data-name="Layer 1" xmlns="http://www.w3.org/2000/svg" viewBox="0 0 196.93 204.5">
  <defs>
    <style>
      .cls-1 {
        fill: #3139fb;
        stroke-width: 0px;
      }

      .cls-2 {
        fill: none;
        stroke: #fff;
        stroke-miterlimit: 10;
        stroke-width: 10px;
      }
    </style>
  </defs>
  <path class="cls-1" d="m189.38,162.76l-12.07-25.38-22.86-48.1L121.21,19.34c-4.16-8.76-12.99-14.34-22.69-14.34-9.69,0-18.52,5.59-22.69,14.34l-30.09,63.3-3.83,8.02s0,0,0-.01l-22.9,48.14h0s-11.45,24.07-11.45,24.07c-5.83,12.24-1.45,27.31,10.55,33.69,12.72,6.76,28.38,1.48,34.52-11.38l10.45-21.96c-.15-.05-.3-.1-.45-.15.15.05.3.1.45.15h0s19.05-40.07,19.05-40.07h0l2.87-6s.01,0,.02,0l5.93-12.46h0s5.03-10.58,5.03-10.58c1.04-2.17,4.14-2.17,5.17,0l10.72,22.55h0l21.83,45.93,10.72,22.55c4.16,8.77,13.01,14.36,22.72,14.35,2.24,0,4.48-.31,6.69-.93,15.14-4.17,22.31-21.59,15.55-35.79Z"/>
  <path class="cls-2" d="m189.38,162.76l-12.07-25.38-22.86-48.1L121.21,19.34c-4.16-8.76-12.99-14.34-22.69-14.34-9.69,0-18.52,5.59-22.69,14.34l-30.09,63.3-3.83,8.02s0,0,0-.01l-22.9,48.14h0s-11.45,24.07-11.45,24.07c-5.83,12.24-1.45,27.31,10.55,33.69,12.72,6.76,28.38,1.48,34.52-11.38l10.45-21.96c-.15-.05-.3-.1-.45-.15.15.05.3.1.45.15h0s19.05-40.07,19.05-40.07h0l2.87-6s.01,0,.02,0l5.93-12.46h0s5.03-10.58,5.03-10.58c1.04-2.17,4.14-2.17,5.17,0l10.72,22.55h0l21.83,45.93,10.72,22.55c4.16,8.77,13.01,14.36,22.72,14.35,2.24,0,4.48-.31,6.69-.93,15.14-4.17,22.31-21.59,15.55-35.79Z"/>
</svg>